<svg id="Layer_1" data-name="Layer 1" xmlns="http://www.w3.org/2000/svg" viewBox="0 0 106.13 105.71"><defs><style>.cls-1{fill:#fefefe;}.cls-2{fill:#909090;}.cls-3{fill:#919191;}.cls-4{fill:#525252;}</style></defs><title>pep logo square</title><path class="cls-1" d="M-.33,39.81q0-19.56,0-39.12c0-1,.2-1.33,1.29-1.33q38.1,0,76.19,0a28.59,28.59,0,0,1,28.69,28.8q0,37.91.07,75.82c0,1.13-.23,1.45-1.41,1.45-16.76,0-33.51.11-50.27.16-8.56,0-17.11,0-25.67,0A28.65,28.65,0,0,1-.34,76.76Q-.31,58.28-.33,39.81Z"/><rect class="cls-1" x="-0.21" y="-0.48" width="105.95" height="105.95"/><path class="cls-2" d="M53.19,30.39c-10.59,0-21.18,0-31.77,0-1,0-1.34-.3-1.24-1.28.06-.5.2-.74.72-.7.2,0,.4,0,.6,0q31.71,0,63.42,0c.57,0,1.27-.28,1.31.83S85.8,30.4,85,30.4Q69.08,30.37,53.19,30.39Z"/><path class="cls-3" d="M53.07,74.56c10.56,0,21.12,0,31.68,0,1,0,1.31.34,1.22,1.29-.06.51-.22.73-.73.7-.2,0-.4,0-.6,0q-31.66,0-63.35,0c-.49,0-1.26.39-1.34-.66s.14-1.32,1.2-1.31C31.79,74.58,42.43,74.56,53.07,74.56Z"/><path class="cls-4" d="M53.09,40.27h7.68a7.7,7.7,0,0,1,1,0c.43.06.76.24.76.75a.71.71,0,0,1-.75.76c-.88,0-1.76,0-2.64,0-4.32,0-8.63,0-13,0-.84,0-1.19.13-1.18,1.09Q45,49.4,45,55.87c0,.9.24,1.15,1.14,1.14,4.76,0,9.52,0,14.28,0h.84c.5,0,.89.19.91.73s-.36.76-.87.76h-.84c-4.76,0-9.52,0-14.27,0-1,0-1.24.3-1.18,1.22a37.83,37.83,0,0,1,0,3.84c0,.79.22,1,1,1,4.6,0,9.2,0,13.79,0,.28,0,.56,0,.84,0,.49,0,1,.07,1.06.71s-.48.85-1,.85c-5.28,0-10.56,0-15.84,0-1,0-1.44-.49-1.42-1.49,0-1.68,0-3.36,0-5,0-.83-.21-1.2-1.07-1.06a3.84,3.84,0,0,1-.48,0c-.57,0-1.23,0-1.22-.77s.69-.8,1.24-.72c1.31.21,1.56-.37,1.54-1.57-.07-4.36,0-8.72,0-13.08,0-1.88.19-2.08,2-2.08Z"/><path class="cls-4" d="M19.92,53.25c0-3.8,0-7.59,0-11.39,0-1,.33-1.58,1.34-1.57,3.46,0,7-.31,10.39.43,2.79.6,5.45,1.55,6.65,4.49a12,12,0,0,1,.12,8.88A6.7,6.7,0,0,1,34.28,58a23.37,23.37,0,0,1-8.57,1.36,21.28,21.28,0,0,1-2.88,0c-1.12-.13-1.34.34-1.28,1.34.09,1.35,0,2.72,0,4.07,0,.57,0,1.2-.83,1.2s-.82-.61-.82-1.19Z"/><path class="cls-4" d="M66.24,53.2c0-3.79,0-7.59,0-11.38,0-.92.33-1.53,1.26-1.53,3.51,0,7-.27,10.52.43a15.11,15.11,0,0,1,2.84.9c3.84,1.62,4.66,4.87,4.61,8.54s-1.23,6.4-4.79,7.83a23.28,23.28,0,0,1-8,1.37c-1.32,0-2.64,0-4,0-.71,0-.89.24-.87.9,0,1.43,0,2.87,0,4.31,0,.62.09,1.41-.87,1.38s-.78-.76-.78-1.35Z"/><path class="cls-1" d="M25.88,41.85a22.42,22.42,0,0,1,5.6.43c4.56,1.1,6.49,3.49,5.88,9.07-.32,2.87-2.13,4.53-4.78,5.4-3.41,1.14-6.93,1-10.44,1-.52,0-.57-.3-.57-.7q0-7.24,0-14.5c0-.54.22-.68.71-.67C23.48,41.86,24.68,41.85,25.88,41.85Z"/><path class="cls-1" d="M67.9,49.78V42.71c0-.44-.08-.89.62-.87,3.23.11,6.48-.3,9.66.54a7.64,7.64,0,0,1,4.66,11.49C81.76,55.7,80,56.47,78.06,57c-3.12.88-6.33.69-9.52.72-.69,0-.65-.42-.65-.87C67.9,54.49,67.9,52.14,67.9,49.78Z"/></svg>